<svg width="120" height="120" viewBox="0 0 120 120" fill="none" xmlns="http://www.w3.org/2000/svg"><path fill="url(#a)" d="M0 0h120v120H0z"/><g filter="url(#b)"><path d="M38.424 31.459c8.943-11.118 26.544-17.96 43.01-13.684C60.142 1.954 8.615 19.058 13.299 63.957c4.685 44.899 48.12 48.747 69.413 38.057s33.641-44.471 18.737-62.858-33.216-17.532-45.991-11.118S30.436 51.242 38.424 70s40.03 16.62 44.288-1.34c4.258-17.959-6.814-25.228-13.627-25.228s-14.905 3.42-16.182 13.256c-1.278 9.835 8.942 13.256 13.627 8.552 4.684-4.704.851-5.987-2.13-5.132s-5.11-.427-2.98-5.13c2.129-4.704 11.072-4.704 13.627.854 2.554 5.56 2.129 14.111-8.517 18.815s-24.7-5.131-21.718-18.815c2.98-13.683 15.33-22.882 31.938-18.814 16.608 4.067 23.421 39.34-2.981 51.74-16.01 7.52-37.474-1.282-42.584-16.676s-1.704-29.505 7.24-40.623" fill="#fff"/></g><defs><radialGradient id="a" cx="0" cy="0" r="1" gradientUnits="userSpaceOnUse" gradientTransform="matrix(44.49993 86 -86 44.49993 37 19)"><stop stop-color="#f5dae6"/><stop offset="1" stop-color="#e598ba"/></radialGradient><filter id="b" x="3" y="5" width="115" height="115" filterUnits="userSpaceOnUse" color-interpolation-filters="sRGB"><feFlood flood-opacity="0" result="BackgroundImageFix"/><feColorMatrix in="SourceAlpha" values="0 0 0 0 0 0 0 0 0 0 0 0 0 0 0 0 0 0 127 0" result="hardAlpha"/><feOffset dy="3"/><feGaussianBlur stdDeviation="5"/><feComposite in2="hardAlpha" operator="out"/><feColorMatrix values="0 0 0 0 0.738112 0 0 0 0 0.414329 0 0 0 0 0.557298 0 0 0 1 0"/><feBlend in2="BackgroundImageFix" result="effect1_dropShadow_24_14"/><feBlend in="SourceGraphic" in2="effect1_dropShadow_24_14" result="shape"/></filter></defs></svg>
